<?xml version="1.0" encoding="utf-8"?>
<!-- Generator: Adobe Illustrator 26.3.1, SVG Export Plug-In . SVG Version: 6.00 Build 0)  -->
<svg version="1.1" id="Layer_1" xmlns="http://www.w3.org/2000/svg" xmlns:xlink="http://www.w3.org/1999/xlink" x="0px" y="0px"
	 viewBox="0 0 16 16" style="enable-background:new 0 0 16 16;" xml:space="preserve">
<style type="text/css">
	.st0{fill-rule:evenodd;clip-rule:evenodd;fill:#515151;}
</style>
<path class="st0" d="M0.5,14.8c-0.2,0.2-0.1,0.5,0,0.6c0.2,0.2,0.5,0.2,0.6,0L8,9.7l6.8,5.7c0.2,0.2,0.5,0.1,0.6,0
	c0.2-0.2,0.2-0.5,0-0.6L9.7,8l5.7-6.8c0.2-0.2,0.1-0.5,0-0.6c-0.2-0.2-0.5-0.2-0.6,0L8,6.3L1.2,0.5C1,0.4,0.7,0.4,0.6,0.6
	C0.4,0.7,0.4,1,0.5,1.2L6.3,8L0.5,14.8z"/>
</svg>
