<?xml version="1.0" encoding="utf-8"?>
<!-- Generator: Adobe Illustrator 26.3.1, SVG Export Plug-In . SVG Version: 6.00 Build 0)  -->
<svg version="1.1" id="Layer_1" xmlns="http://www.w3.org/2000/svg" xmlns:xlink="http://www.w3.org/1999/xlink" x="0px" y="0px"
	 viewBox="0 0 1000 106.9" style="enable-background:new 0 0 1000 106.9;" xml:space="preserve">
<style type="text/css">
	.st0{fill-rule:evenodd;clip-rule:evenodd;fill:url(#SVGID_1_);}
	.st1{fill-rule:evenodd;clip-rule:evenodd;fill:url(#SVGID_00000080164525738637402550000003913319579429738682_);}
	.st2{fill-rule:evenodd;clip-rule:evenodd;fill:url(#SVGID_00000061461717238622425210000003491194300693047444_);}
</style>
<g>
	
		<linearGradient id="SVGID_1_" gradientUnits="userSpaceOnUse" x1="447.9522" y1="232.6214" x2="534.4964" y2="130.4285" gradientTransform="matrix(1 0 0 -1 0 242.1702)">
		<stop  offset="0" style="stop-color:#FFF4D1"/>
		<stop  offset="0.179" style="stop-color:#F5D28F"/>
		<stop  offset="1" style="stop-color:#675537"/>
	</linearGradient>
	<path class="st0" d="M466.7,35c0,0.5,0,0.5-0.2,0.7c-1.2,0.6-3.1,0.8-4.5,0.8c-4.6,0-8.6-2.2-8.6-7.3c0-3,1.5-5.1,3.2-6.1
		c1.8-1.1,3.4-1.2,5-1.2c1.1,0,2.2,0.1,3.3,0.3c0.5,0.1,1,0.2,1.5,0.2c0.2,0,0.3,0.1,0.3,0.2c-0.1,1-0.1,2-0.1,3.1
		c0,0.3-0.1,0.4-0.2,0.4c-0.1,0-0.2-0.1-0.2-0.2c0-0.6-0.3-1.1-0.6-1.5c-0.6-0.6-2.1-1.5-4.2-1.5c-1,0-2.4,0.1-3.7,1.2
		c-1,0.9-1.7,2.3-1.7,4.6c0,4,2.6,7,6.5,7c0.5,0,1.1,0,1.6-0.2c0.1-0.1,0.2-0.2,0.3-0.3c0.1-0.1,0.1-0.3,0.1-0.4v-1.7
		c0-0.9,0-1.6,0-2.2c0-0.6-0.2-0.9-0.8-1.1c-0.2,0-0.5-0.1-0.7-0.1c-0.2,0-0.3,0-0.3-0.1c0-0.1,0.1-0.2,0.4-0.2c0.6,0,1.2,0,1.7,0
		c0.4,0,0.8,0,1,0c0.3,0,0.7,0,1,0c0.4,0,0.8,0,1.1,0c0.2,0,0.4,0,0.4,0.2c0,0.1-0.1,0.1-0.2,0.1c-0.2,0-0.3,0-0.5,0.1
		c-0.5,0.1-0.7,0.4-0.7,1.1c0,0.6,0,1.3,0,2.2L466.7,35z M421.4,74.6c0.1-0.2,0.1-0.3,0.3-0.3c2.7-0.1,5.3-0.2,8-0.3
		c0.1,0,0.1,0,0.2,0.1c0.1,0,0.1,0.1,0.1,0.2c0.9,2.8,1.4,4.2,2.3,7c0,0.1,0,0.2,0,0.3c0,0.1,0,0.2-0.1,0.3c0,0.1-0.1,0.1-0.2,0.2
		c-0.1,0.1-0.1,0.1-0.2,0.1c-0.1,0-0.3,0.1-0.3,0.2c-0.1,0.1-0.1,0.2-0.1,0.4c0,0.3,0.2,0.4,0.8,0.3c1.7-0.1,3.4-0.2,5.1-0.3h0l0,0
		h0h0l0,0h0h0l0,0h0l0,0c1.5-0.1,3.1-0.2,4.6-0.3c0.7,0,0.9-0.2,0.9-0.5c0-0.3-0.2-0.4-0.7-0.4c-0.4,0-0.7,0-1.1-0.1
		c-1.2-0.1-2-1.1-3.2-4.4c-2.2-6-4.2-12-6.3-18c-1-2.8-1.9-5.6-2.9-8.4c-0.6-1.7-0.9-2.4-1.3-2.4c-0.4,0-0.8,0.6-1.4,2.5
		c-3.2,9.5-6.4,19-9.3,28.5c-0.7,2.4-1.4,4-2.7,4.5c-0.4,0.1-0.7,0.2-1.1,0.3c-0.4,0.1-0.7,0.2-0.7,0.6c0,0.3,0.2,0.5,0.7,0.4
		c1.2-0.1,2.6-0.4,3.5-0.5l0,0h0c0.5-0.1,0.8-0.1,0.9-0.1c1-0.1,1.8-0.1,2.5-0.2c0.7,0,1.3-0.1,2.1-0.1c0.5-0.1,0.7-0.2,0.7-0.6
		c0-0.2-0.1-0.4-0.6-0.4c-0.3,0-0.9,0-1.2-0.1c-0.7-0.1-1-0.4-1-1.3c0.1-1,0.3-2.1,0.6-3.1C420.8,76.9,421,76.2,421.4,74.6z
		 M428.9,70.1c0,0.1,0,0.2-0.2,0.2l-6,0.1c-0.1,0-0.2-0.1-0.1-0.2c1-3.3,2-6.6,3-9.9c0.1-0.2,0.1-0.3,0.2,0
		C426.8,63.5,427.8,66.8,428.9,70.1z M445,79.7c0,0.8,0.2,1.4,0.8,1.6c1.4,0.7,3.2,0.9,5.8,0.8c2.2-0.1,4.3-0.9,6.1-2.1
		c2.1-1.4,3.7-4.8,3.7-7.3c0-4.3-3.3-7.5-6.4-10.1c-0.3-0.3-0.6-0.5-0.8-0.7l0,0c-0.3-0.2-0.6-0.4-0.9-0.7c-2.4-1.9-2.8-3.5-2.8-4.9
		c0-1.9,1.1-3.7,3.9-3.6c2.5,0.1,4.1,1.6,4.8,2.8c0.4,0.7,0.6,1.5,0.6,2.3c0.1,0.6,0.2,0.8,0.4,0.8c0.3,0,0.4-0.3,0.4-1
		c0-2.5,0.1-3.7,0.1-4.5c0-0.3,0-0.7,0-1c0-0.3-0.1-0.4-0.5-0.6c-0.6-0.2-1.1-0.4-1.7-0.6c-1.3-0.4-2.7-0.6-4-0.6
		c-4.7-0.3-9.1,3.2-8.9,8.1c0.1,4,2.2,7.7,5.5,10.1c0.8,0.6,1.2,1,2,1.6l0.2,0.2c3,2.3,3.3,3.6,3.3,5.3c0,1.7-1,3.7-4.3,3.9
		c-3,0.2-5.5-2.1-6-5c-0.1-0.4-0.1-0.9-0.2-1.3c0-0.3-0.1-0.7-0.3-0.7c-0.2,0-0.4,0.3-0.4,1C445.1,74.7,445,76.3,445,79.7z
		 M491.3,76.5c0,2.2-0.1,2.4-0.7,2.7c-2.7,1.1-5.8,1.4-8.6,1.6c-8.9,0.5-16.6-5-16.7-14.6c0-4.7,2.1-9.9,6.3-12.4
		c3.1-1.8,6.6-2.3,10.1-2.2c1.9,0.1,3.8,0.3,5.7,0.6c0.3,0,0.6,0.1,0.9,0.2c0.9,0.2,1.7,0.3,2.5,0.3c0.3,0,0.4,0.2,0.3,0.5l0,0l0,0
		l0,0c-0.1,0.5-0.4,2.2-0.4,6.7c0,0.6-0.1,0.8-0.4,0.8c-0.2,0-0.4-0.3-0.4-0.6c0-0.6-0.2-1.3-0.4-1.8c-1.2-3.5-5.4-4.3-8.7-4.4
		c-2.6-0.1-4.7,0.7-6.3,2.6c-1.8,2.2-2.2,5.4-2.2,8.2c0,6.2,3,14,10.4,13.8c0.5,0,1.4-0.1,2-0.5c0.1-0.1,0.3-0.3,0.3-0.5
		c0.1-0.2,0.1-0.4,0.1-0.6v-2.3c0-1.5,0-3,0-4.3c0-2.1-0.5-2.9-1.6-3.1c-0.5-0.1-1-0.1-1.5-0.2c-0.3,0-0.6-0.1-0.6-0.4
		c0-0.2,0.2-0.4,0.7-0.4c1.4,0,2.9,0,4.1,0.1h0h0h0h0l0,0c0.8,0,1.4,0,1.8,0c0.6,0,1.3,0,2.2,0h0h0h0h0h0h0h0h0h0h0h0
		c1,0,2.2-0.1,3.2-0.1c0.5,0,0.8,0.1,0.8,0.4c0,0.3-0.2,0.3-0.6,0.4c-0.1,0-0.3,0-0.5,0.1l0,0c-0.2,0-0.3,0-0.5,0.1
		c-0.8,0.2-1.2,0.6-1.3,1.9c-0.1,1.2-0.1,3.1-0.1,4.9L491.3,76.5z M503.9,72.7c0.1-0.2,0.1-0.3,0.3-0.3c2.7,0,5.4,0,8,0
		c0.1,0,0.1,0,0.2,0.1c0.1,0,0.1,0.1,0.1,0.2c0.9,2.3,1.4,3.4,2.2,5.6l0.1,0.3c0,0.1,0,0.1,0,0.2c0,0.1,0,0.2-0.1,0.2
		c0,0.1-0.1,0.1-0.2,0.2c-0.1,0-0.1,0.1-0.2,0.1c-0.3,0.1-0.5,0.2-0.5,0.4s0.2,0.3,0.8,0.3c1.8,0,3.7,0.1,5.6,0.2l0,0
		c1.4,0.1,2.7,0.1,4.1,0.2c0.7,0,0.9-0.1,0.9-0.3c0-0.2-0.2-0.4-0.7-0.4c-0.4,0-0.8-0.1-1.1-0.2c-1.2-0.2-2-1.1-3.2-4.1
		c-0.9-2.1-1.7-4.2-2.6-6.3l0,0l0,0l0,0l0,0l0,0l0,0l0,0l0,0l0,0c-2.2-5.2-4.3-10.5-6.6-15.6c-0.6-1.3-0.9-1.8-1.3-1.8
		c-0.4,0-0.8,0.6-1.4,2.2c-3.1,7.4-6.2,14.8-9.4,22.2c-0.7,1.8-1.4,2.9-2.7,3.2c-0.4,0.1-0.7,0.1-1.1,0.2c-0.4,0-0.7,0.1-0.7,0.4
		c0,0.2,0.2,0.4,0.7,0.4c1.1,0,2.5-0.1,3.5-0.1h0h0l0,0c0.5,0,0.8,0,1,0c1,0,1.7,0,2.5,0.1c0.7,0,1.4,0.1,2.1,0.1
		c0.5,0,0.7-0.1,0.7-0.4c0-0.2-0.1-0.3-0.6-0.4c-0.3,0-0.9-0.1-1.2-0.2c-0.7-0.1-1.1-0.4-1.1-1.1c0.1-0.8,0.3-1.6,0.6-2.4
		c0.2-0.5,0.3-0.9,0.5-1.3l0,0C503.4,73.9,503.6,73.4,503.9,72.7z M511.4,69.3c0,0.1,0,0.2-0.2,0.2l-6,0c0,0,0,0-0.1,0
		c0,0,0,0-0.1,0c0,0,0,0,0-0.1c0,0,0,0,0-0.1c1-2.6,2-5.2,3-7.9c0.1-0.2,0.1-0.3,0.2,0C509.3,64.1,510.3,66.7,511.4,69.3z
		 M530.9,62.8c0-2.6,0-5.3-0.1-7.9c-0.1-1.6-0.5-2.1-1.3-2.2c-0.5-0.1-0.9-0.1-1.4-0.1c-0.4,0-0.6-0.2-0.6-0.4
		c0-0.2,0.2-0.4,0.8-0.4c0.9,0,2.4-0.1,3.6-0.1c0.8,0,1.5,0,1.7,0c0.3,0,1.1-0.1,2-0.1c1.2-0.1,2.7-0.2,3.6-0.2
		c3.3-0.2,5.6,0.1,7.1,1c1.7,1,3.2,3,3.2,6.1c0,3.4-1.9,6.4-4.7,8.2c0.5,0.8,1,1.6,1.4,2.4c1.7,2.9,3.5,5.8,5.4,8.5
		c1.8,2.5,2.7,3.3,3.7,3.5c0.3,0.1,0.6,0.1,0.9,0.2c0.4,0,0.6,0.2,0.6,0.5c0,0.4-0.3,0.4-0.7,0.4l-0.7,0l0,0
		c-0.9-0.1-1.5-0.1-2.5-0.2c-3.6-0.2-5.2-0.8-6.4-1.7c-1.1-0.8-2.3-2.6-3.6-5.2c-0.7-1.3-1.2-2.3-1.6-3.1l0,0c-0.6-1.2-1-2-1.4-2.6
		c0-0.1-0.1-0.1-0.2-0.2c-0.1,0-0.2-0.1-0.2-0.1l-2.3,0c-0.2,0-0.3,0.1-0.3,0.3v2c0,3.1,0,4.9,0.2,6.6c0.1,1,0.3,1.9,1.4,2.2
		c0.5,0.2,1,0.3,1.6,0.3c0.6,0.1,0.6,0.2,0.6,0.5c0,0.2-0.2,0.3-0.7,0.3c-1.7-0.1-4.2-0.3-5.5-0.4l0,0l0,0l0,0h0l0,0l0,0h0
		c-0.5,0-0.8-0.1-0.9-0.1c-0.2,0-0.8,0-1.5,0h0h0h0h0h0c-1.2,0-2.8,0-3.5-0.1c-0.5,0-0.7-0.1-0.7-0.4c0-0.3,0.3-0.4,0.6-0.4
		c0.4,0,0.8,0,1.2-0.1c0.7-0.2,1-0.8,1.1-2.1c0.2-2.2,0.2-4.4,0.2-6.6v0v0v0v0v0v0v0c0-0.5,0-1,0-1.4L530.9,62.8z M536.9,65.3
		c0,0.1,0,0.2,0.1,0.3c0.1,0.1,0.1,0.2,0.2,0.2c0.7,0.4,1.7,0.5,2.7,0.5c1,0,1.7-0.2,2.2-0.6c0.7-0.6,1.3-2.5,1.4-5
		c0.1-2.9-1.6-7-5-6.9c-0.5,0-0.9,0.1-1.4,0.2c-0.1,0.1-0.2,0.1-0.2,0.4L536.9,65.3z M562.1,60.1c0,0.8,0,1.5,0,2.3v7.6
		c0,0.4,0,0.8,0,1.2v0c0,2.6,0,5.1-0.2,7.6c-0.1,1.7-0.5,2.5-1.2,2.6c-0.4,0.1-0.7,0.1-1.1,0.1c-0.4,0-0.7,0.1-0.7,0.4
		c0,0.2,0.1,0.4,0.7,0.5c0.7,0.1,1.1,0.1,1.7,0.1c0.2,0,0.5,0,0.8,0c1,0,1.8,0.1,2.7,0.2c0.7,0.1,2.1,0.3,3.5,0.6
		c1.2,0.3,2.5,0.4,3.7,0.5c4.5,0.3,9-0.6,12-4.6c2.9-3.9,3.8-8.9,3.8-13.4c0-4.2-0.7-8.7-3.4-12.4c-3.2-4.4-8.9-4.8-13.8-4.3
		c-0.9,0.1-1.6,0.2-2.3,0.2l0,0h0v0l0,0l0,0l0,0c-1.5,0.2-2.6,0.3-3.4,0.3c-0.9,0.1-2.4,0.2-3.7,0.2l0,0h0l0,0
		c-0.9,0-1.6,0.1-1.9,0.1c-0.6,0-0.8,0.2-0.8,0.4c0,0.2,0.2,0.4,0.7,0.4c0.4,0,0.6,0,0.8,0l0,0c0.2,0,0.3,0,0.5,0
		c1.3,0.1,1.5,1.3,1.6,2.5C562.2,55.6,562.1,57.8,562.1,60.1z M568.3,68.6c0-0.4,0-0.9,0-1.3v-5.7c0-0.9,0-1.9,0-2.8v0
		c0-1.9,0-3.7,0-5.6c0-0.4,0-0.6,0.3-0.8c0.3-0.2,1.1-0.4,1.9-0.5c3.8-0.3,5.9,1.8,8,4.5c1.9,3.4,2.6,7.2,2.6,10.8
		c0.1,3.6,0,8-2.3,11.1c-1.8,2.5-3.9,3-6.4,2.8c-1.5-0.1-3-0.9-3.6-1.9c-0.4-0.5-0.5-1.4-0.6-3.3C568.3,73.5,568.3,71,568.3,68.6z
		 M477.6,21.9c-5.6,0-7.7,4.1-7.7,7.3c0,3.3,2.2,7.3,7.5,7.3c4.7,0,7.7-3.4,7.7-7.6S482.2,21.9,477.6,21.9z M477,22.8
		c3.1,0,5.5,2.6,5.5,6.8c0,5.4-3,6-4.3,6c-3.6,0-5.7-3.1-5.7-7C472.4,24,474.9,22.8,477,22.8z M488.9,27.6c0-2.8,0-3.4,0-4
		c0-0.6-0.2-0.9-0.8-1.1c-0.2,0-0.5-0.1-0.7-0.1c-0.2,0-0.3,0-0.3-0.2s0.1-0.2,0.4-0.2c0.6,0,1.2,0,1.7,0c0.4,0,0.7,0,0.9,0
		c0.2,0,0.6,0,1,0c0.6,0,1.2,0,1.9,0c2.3,0,5.4,0,7.5,2.1c1.2,1.3,1.9,3,1.8,4.7c0,1.9-0.7,3.8-2,5.2c-0.9,0.9-2.8,2.2-6.2,2.2
		c-0.7,0-1.4-0.1-2.1-0.1l-0.2,0c-0.6,0-1.2-0.1-1.6-0.1c-0.2,0-0.6,0-1.1,0c-0.4,0-0.9,0-1.3,0c-0.2,0-0.4-0.1-0.4-0.2
		c0-0.1,0.1-0.1,0.3-0.1c0.2,0,0.5,0,0.7-0.1c0.4-0.1,0.5-0.5,0.5-1c0.1-0.8,0.1-2.3,0.1-4v0V27.6z M491.2,29.6c0,2,0,3.4,0,3.8
		c0,0.5,0.1,1.2,0.2,1.4c0.2,0.4,1,0.7,2.4,0.7c1.9,0,3.2-0.4,4.3-1.3c1.2-1,1.6-2.7,1.6-4.6c0-2.4-1-3.9-1.8-4.7
		c-1.7-1.6-3.8-1.9-5.3-1.9c-0.4,0-0.8,0-1.2,0.1c-0.1,0-0.1,0.1-0.2,0.1c0,0.1-0.1,0.2,0,0.2c0,0.6,0,2.3,0,3.7L491.2,29.6z
		 M504.5,35.4c0,0.4,0.1,0.5,0.4,0.6c0.9,0.4,1.8,0.5,2.7,0.5c1,0,2.1-0.2,3-0.8c0.5-0.3,1-0.8,1.3-1.4c0.3-0.6,0.5-1.2,0.4-1.9
		c0-1.8-0.8-3.1-3.1-4.8l-0.5-0.4c-1.5-1.2-2-1.8-2-2.7c0-1.1,0.8-1.9,2.2-1.9c1.2,0,1.8,0.6,2,0.9c0.3,0.4,0.4,0.8,0.5,1.2
		c0,0.2,0,0.3,0.2,0.3s0.2-0.1,0.2-0.6c0-1,0-1.6,0.1-1.9v0c0-0.1,0-0.2,0-0.3c0-0.1-0.1-0.2-0.3-0.2c-0.2-0.1-0.4-0.1-0.8-0.2
		c-0.6-0.1-1.1-0.1-1.7-0.1c-2.6,0-4.3,1.5-4.3,3.5c0,1.5,0.7,2.8,2.8,4.4l0.9,0.7c1.5,1.2,1.8,2.1,1.8,3c0,1-0.8,2.1-2.5,2.1
		c-1.2,0-2.3-0.5-2.7-1.9c-0.1-0.3-0.2-0.6-0.2-1c0-0.1,0-0.3-0.2-0.3c-0.1,0-0.2,0.2-0.2,0.5l0,0C504.6,33.3,504.5,34.4,504.5,35.4
		z M520.1,29.2c0-3.2,2.1-7.3,7.7-7.3c4.7,0,7.5,2.7,7.5,7s-3,7.6-7.7,7.6C522.3,36.5,520.1,32.5,520.1,29.2z M532.7,29.6
		c0-4.2-2.4-6.8-5.5-6.8c-2.1,0-4.6,1.2-4.6,5.8c0,3.9,2.1,7,5.7,7C529.7,35.6,532.7,35,532.7,29.6z M539.1,23.6c0,0.6,0,1.1,0,4
		l0,3.3v0c0,1.8,0,3.2-0.1,4c-0.1,0.5-0.2,0.9-0.5,1c-0.2,0.1-0.4,0.1-0.7,0.1c-0.2,0-0.3,0.1-0.3,0.1c0,0.1,0.1,0.2,0.4,0.2
		c0.4,0,0.9,0,1.4,0c0.4,0,0.8,0,1,0c0.2,0,0.5,0,0.8,0c0.6,0,1.3,0,2,0c0.3,0,0.4-0.1,0.4-0.2s-0.1-0.1-0.3-0.1
		c-0.3,0-0.6,0-0.9-0.1c-0.6-0.1-0.7-0.5-0.7-1c-0.1-0.8-0.1-2.2-0.1-4v-1.5c0-0.1,0-0.2,0.1-0.2c0.3,0,2.3,0,2.8,0.1
		c0.2,0,0.4,0.1,0.6,0.2c0.2,0.1,0.3,0.3,0.4,0.5c0.1,0.2,0.1,0.4,0.1,0.6c0,0.1,0,0.3,0.1,0.3c0.2,0,0.2-0.2,0.2-0.4
		c0-0.1,0-1,0.1-1.4c0-0.3,0.1-0.6,0.1-0.8c0-0.2,0-0.3,0-0.3c0-0.1,0-0.2-0.1-0.2c-0.1,0-0.1,0.1-0.2,0.1c0,0,0,0,0,0
		c-0.3,0.4-0.6,0.4-1.6,0.4c-0.4,0-0.9,0-1.3,0c-0.4,0-0.8,0-1,0c-0.1,0-0.1-0.1-0.1-0.2v-4.7c0-0.2,0.1-0.3,0.2-0.3
		c0.3,0,0.8,0,1.3,0c0.6,0,1.2,0,1.5,0c0.7,0,1.1,0.3,1.2,0.6c0.1,0.2,0.1,0.5,0.1,0.7c0,0.2,0.1,0.3,0.2,0.3c0.1,0,0.2-0.1,0.2-0.3
		c0-0.1,0-0.7,0.1-1c0-0.2,0-0.4,0-0.5c0-0.3,0.1-0.5,0.1-0.6c0-0.1,0-0.2,0-0.2c0,0,0-0.1,0-0.1c0,0-0.1-0.1-0.1-0.1
		c-0.1,0-0.1,0-0.2,0.1c0,0-0.1,0-0.1,0.1c-0.2,0.1-0.5,0.1-0.8,0.1c-0.4,0-4.2,0-4.9,0c-0.5,0-1,0-1.4,0c-0.4,0-0.8,0-1.3,0
		c-0.3,0-0.4,0.1-0.4,0.2c0,0.1,0.1,0.1,0.3,0.1c0.2,0,0.5,0,0.7,0.1C538.9,22.7,539.1,23,539.1,23.6z"/>
	
		<radialGradient id="SVGID_00000089535128422741674730000002608204129076542593_" cx="-493.3015" cy="1124.5176" r="1.3141" gradientTransform="matrix(9.859019e-15 161.01 161.01 -9.859019e-15 -180858.1719 79465.0625)" gradientUnits="userSpaceOnUse">
		<stop  offset="0" style="stop-color:#FFF4D1"/>
		<stop  offset="0.179" style="stop-color:#F5D28F"/>
		<stop  offset="1" style="stop-color:#675537"/>
	</radialGradient>
	<path style="fill-rule:evenodd;clip-rule:evenodd;fill:url(#SVGID_00000089535128422741674730000002608204129076542593_);" d="
		M339.9,50.8L7.6,53l331.3,2l11.8,11.8l1.4,1.4l1.4-1.4l11.7-11.7L377,66.9l1.4,1.4l1.4-1.4l12.1-12.1l1.4-1.4l-1.4-1.4L379.8,40
		l-1.4-1.4L377,40l-11.7,11.7L353.5,40l-1.4-1.4l-1.4,1.4L339.9,50.8z M342.8,53.4l9.3,9.3l9.3-9.3l-9.3-9.3L342.8,53.4z
		 M369.1,53.4l9.3,9.3l9.3-9.3l-9.3-9.3L369.1,53.4z"/>
	
		<radialGradient id="SVGID_00000145773165718656711310000000919464137888722315_" cx="-493.3015" cy="1128.2362" r="1.314" gradientTransform="matrix(9.859019e-15 161.01 161.01 -9.859019e-15 -180857.7031 79465.0625)" gradientUnits="userSpaceOnUse">
		<stop  offset="0" style="stop-color:#FFF4D1"/>
		<stop  offset="0.179" style="stop-color:#F5D28F"/>
		<stop  offset="1" style="stop-color:#675537"/>
	</radialGradient>
	<path style="fill-rule:evenodd;clip-rule:evenodd;fill:url(#SVGID_00000145773165718656711310000000919464137888722315_);" d="
		M660.1,50.8L992.4,53l-331.3,2l-11.8,11.8l-1.4,1.4l-1.4-1.4l-11.7-11.7L623,66.9l-1.4,1.4l-1.4-1.4l-12.1-12.1l-1.4-1.4l1.4-1.4
		L620.2,40l1.4-1.4L623,40l11.7,11.7L646.5,40l1.4-1.4l1.4,1.4L660.1,50.8z M657.2,53.4l-9.3,9.3l-9.3-9.3l9.3-9.3L657.2,53.4z
		 M630.9,53.4l-9.3,9.3l-9.3-9.3l9.3-9.3L630.9,53.4z"/>
</g>
</svg>
